<svg width="107" height="191" viewBox="0 0 107 191" fill="none" xmlns="http://www.w3.org/2000/svg">
<mask id="mask0_30_7" style="mask-type:luminance" maskUnits="userSpaceOnUse" x="0" y="0" width="107" height="191">
<path d="M0.167969 0.0844116H106.926V190.317H0.167969V0.0844116Z" fill="white"/>
</mask>
<g mask="url(#mask0_30_7)">
<path d="M81.1476 0.0844116C83.5555 12.1411 77.5271 24.5808 68.8414 33.2607C60.1557 41.9638 49.0447 47.7311 38.4501 53.9277C27.8323 60.1302 17.2319 67.2029 10.5769 77.5364C4.77482 86.5238 2.40177 97.2925 1.18913 107.91C-0.325213 120.803 -0.116337 134.321 3.97993 146.454C6.9564 139.137 10.8438 132.14 15.2592 125.601C23.9449 112.726 34.6381 101.366 45.2734 90.0689C57.713 76.8692 70.1295 63.6926 82.5691 50.4987C69.6943 74.618 49.7468 94.0666 32.8917 115.586C16.0367 137.13 1.6649 162.839 3.23727 190.143C4.49052 176.166 15.8278 165.072 28.134 158.325C40.4402 151.577 54.2202 147.8 66.3407 140.75C89.259 127.4 104.675 101.957 105.87 75.4477C107.083 48.642 94.8522 23.1361 81.1476 0.0844116Z" fill="url(#paint0_linear_30_7)"/>
</g>
<defs>
<linearGradient id="paint0_linear_30_7" x1="53.139" y1="0.0844116" x2="53.139" y2="190.143" gradientUnits="userSpaceOnUse">
<stop stop-color="#00BF63"/>
<stop offset="1" stop-color="#00592E"/>
</linearGradient>
</defs>
</svg>
